<svg xmlns="http://www.w3.org/2000/svg" viewBox="0 0 321.05 303.6"><defs><style>.cls-1{fill:#00aeef;}.cls-2{fill:#ee2a7b;}.cls-3{fill:#2e3192;}</style></defs><g id="Layer_2" data-name="Layer 2"><g id="Layer_1-2" data-name="Layer 1"><g id="boss"><polygon class="cls-1" points="154.87 303.44 229.95 68.78 79.78 68.78 154.87 303.44"/><polygon class="cls-1" points="154.87 0 128.18 82.6 181.55 82.6 154.87 0"/></g><g id="mr_pink"><rect class="cls-2" x="190.3" y="114.77" width="130.75" height="188.83"/><rect class="cls-2" x="238.57" y="73.74" width="34.22" height="56.98"/></g><path id="mr_purple" class="cls-3" d="M.08,303.6H123.23c.43-24.65.53-80-7.76-132.22-3.14-19.81-7.9-41.8-23.26-55.79a47,47,0,0,0-14.14-8.92c.68-6,1.27-18.28-4.56-29.57a12.93,12.93,0,0,0-11.86-7.26c-5.51.21-9.18,3.61-11.4,8.37-4.76,10.2-5,20.69-4.56,27.34a50,50,0,0,0-15,10C15.2,130.47,10.76,152.88,7.83,172.5.08,224.32-.24,277.25.08,303.6Z"/><g id="pink_tie"><polygon class="cls-2" points="62.95 157.06 70.61 127.49 55.29 127.49 62.95 157.06"/><polygon class="cls-2" points="62.95 157.06 48.09 234.93 62.95 257.39 75.29 235.9 62.95 157.06"/></g><g id="purple_tie"><polygon class="cls-3" points="256.93 156.06 264.59 126.49 249.28 126.49 256.93 156.06"/><polygon class="cls-3" points="256.93 156.06 242.08 233.93 256.93 256.39 269.28 234.9 256.93 156.06"/></g><g id="boss_tie"><polygon class="cls-3" points="154.91 108.86 162.57 79.28 147.25 79.28 154.91 108.86"/><polygon class="cls-2" points="154.91 108.86 140.05 186.72 154.91 209.18 167.25 187.69 154.91 108.86"/></g></g></g></svg>