<svg xmlns="http://www.w3.org/2000/svg" viewBox="0 0 263 148"><defs><style>.cls-1{fill:#00aeef;}.cls-2{fill:#ee2a7b;}.cls-3{fill:#2e3192;}</style></defs><g id="Layer_2" data-name="Layer 2"><g id="Layer_1-2" data-name="Layer 1"><g id="boss"><polygon class="cls-1" points="126.86 147.92 188.37 33.53 65.36 33.53 126.86 147.92"/><polygon class="cls-1" points="126.86 0 105 40.27 148.72 40.27 126.86 0"/></g><g id="mr_pink"><rect class="cls-2" x="155.89" y="55.95" width="107.11" height="92.05"/><rect class="cls-2" x="195.43" y="35.95" width="28.03" height="27.77"/></g><path id="mr_purple" class="cls-3" d="M.06,148H101c.35-12,.43-39-6.36-64.45-2.57-9.66-6.47-20.38-19-27.2A47.9,47.9,0,0,0,64,52a16.69,16.69,0,0,0-3.73-14.42c-1.62-1.86-5-3.64-9.72-3.53-4.51.1-7.52,1.76-9.34,4.08a17.85,17.85,0,0,0-3.73,13.32,49.78,49.78,0,0,0-12.33,4.9C12.45,63.6,8.82,74.52,6.41,84.09.07,109.35-.2,135.15.06,148Z"/><g id="pink_tie"><polygon class="cls-2" points="51.57 76.57 57.84 62.15 45.29 62.15 51.57 76.57"/><polygon class="cls-2" points="51.57 76.57 39.4 114.52 51.57 125.47 61.68 115 51.57 76.57"/></g><g id="purple_tie"><polygon class="cls-3" points="210.48 76.08 216.75 61.66 204.2 61.66 210.48 76.08"/><polygon class="cls-3" points="210.48 76.08 198.31 114.03 210.48 124.99 220.59 114.51 210.48 76.08"/></g><g id="boss_tie"><polygon class="cls-3" points="126.9 53.07 133.17 38.65 120.63 38.65 126.9 53.07"/><polygon class="cls-2" points="126.9 53.07 114.73 91.02 126.9 101.97 137.01 91.5 126.9 53.07"/></g></g></g></svg>