<svg xmlns="http://www.w3.org/2000/svg" viewBox="0 0 101.07 113.96"><defs></defs><g id="Layer_2" data-name="Layer 2"><g id="Layer_1-2" data-name="Layer 1"><path id="mr_purple" class="purple" d="M.06,114H101c.35-12,.43-39-6.36-64.46-2.57-9.66-6.47-20.38-19-27.19A48,48,0,0,0,64,18,16.67,16.67,0,0,0,60.22,3.54C58.6,1.68,55.17-.1,50.5,0,46,.1,43,1.76,41.16,4.08a17.87,17.87,0,0,0-3.73,13.33,49.39,49.39,0,0,0-12.33,4.9C12.45,29.56,8.82,40.48,6.41,50.05.07,75.31-.2,101.11.06,114Z"/><g id="pink_tie"><polygon class="pink" points="51.57 42.52 57.84 28.1 45.29 28.1 51.57 42.52"/><polygon class="pink" points="51.57 42.52 39.4 80.48 51.57 91.43 61.68 80.95 51.57 42.52"/></g></g></g></svg>
